<svg width="224" height="60" viewBox="0 0 224 60" fill="none" xmlns="http://www.w3.org/2000/svg">
<path d="M74.708 13.5262C64.7615 13.5262 56.7004 21.5872 56.7004 31.5337C56.7004 41.4802 64.7615 49.5412 74.708 49.5412C84.6544 49.5412 92.7155 41.4802 92.7155 31.5337C92.7155 21.5872 84.6544 13.5262 74.708 13.5262ZM74.708 42.1496C68.9218 42.1496 64.2286 37.4565 64.2286 31.6703C64.2286 25.8841 68.9218 21.191 74.708 21.191C80.4941 21.191 85.1873 25.8841 85.1873 31.6703C85.1873 37.4565 80.4941 42.1496 74.708 42.1496Z" fill="white"/>
<path d="M113.312 13.5262C103.366 13.5262 95.3046 21.5872 95.3046 31.5337C95.3046 41.4802 103.366 49.5412 113.312 49.5412C123.259 49.5412 131.32 41.4802 131.32 31.5337C131.32 21.5872 123.259 13.5262 113.312 13.5262ZM113.312 42.1496C107.526 42.1496 102.833 37.4565 102.833 31.6703C102.833 25.8841 107.526 21.191 113.312 21.191C119.098 21.191 123.791 25.8841 123.791 31.6703C123.791 37.4565 119.098 42.1496 113.312 42.1496Z" fill="white"/>
<path d="M18.0075 13.5261C8.06103 13.5261 0 21.5871 0 31.5336C0 41.4801 8.06103 49.5411 18.0075 49.5411C27.954 49.5411 36.015 41.4801 36.015 31.5336C36.015 21.5871 27.954 13.5261 18.0075 13.5261ZM18.0075 42.1496C12.2213 42.1496 7.52818 37.4564 7.52818 31.6703C7.52818 25.8841 12.2213 21.1909 18.0075 21.1909C23.7937 21.1909 28.4869 25.8841 28.4869 31.6703C28.4869 37.4564 23.7937 42.1496 18.0075 42.1496Z" fill="white"/>
<path d="M28.4936 52.9362H7.52808V59.9999H28.4936V52.9362Z" fill="white"/>
<path d="M35.407 46.0161H28.4868V52.9363H35.407V46.0161Z" fill="white"/>
<path d="M132.706 13.5262L138.137 49.5412H152.005L156.295 21.1841H157.866L161.583 49.5412H176.454L181.598 13.5262H174.022L170.019 42.1496H168.448L164.445 13.5262H150.27L146 42.1496H144.142L140.282 13.5262H132.706Z" fill="white"/>
<path d="M195.084 49.5412V21.7033H184.406V13.5261H195.084V10.5545L198.643 6.76306H201.963V3.43618L205.754 0H213.112V7.47353H203.384L202.673 8.53922V13.5261H213.112V21.1841H202.912V49.5412H195.084Z" fill="white"/>
<path d="M223.782 13.5262H215.837V49.5412H223.782V13.5262Z" fill="white"/>
<path d="M223.782 0H215.837V7.94489H223.782V0Z" fill="white"/>
<path d="M38.7065 49.0015V24.2446L42.129 21.1841H45.5584V16.9828L48.9467 13.5945H56.7003V21.1841H46.4396V49.0015H38.7065Z" fill="white"/>
</svg>
