<?xml version="1.0" encoding="UTF-8"?>
<svg id="katman_2" data-name="katman 2" xmlns="http://www.w3.org/2000/svg" viewBox="0 0 327.58 87.83">
  <defs>
    <style>
      .cls-1 {
        fill: #101113;
      }
    </style>
  </defs>
  <g id="katman_1" data-name="katman 1">
    <g>
      <path class="cls-1" d="M26.36,19.8C11.8,19.8,0,31.6,0,46.16s11.8,26.36,26.36,26.36,26.36-11.8,26.36-26.36-11.8-26.36-26.36-26.36ZM26.36,61.7c-8.47,0-15.34-6.87-15.34-15.34s6.87-15.34,15.34-15.34,15.34,6.87,15.34,15.34-6.87,15.34-15.34,15.34Z"/>
      <path class="cls-1" d="M109.36,19.8c-14.56,0-26.36,11.8-26.36,26.36s11.8,26.36,26.36,26.36,26.36-11.8,26.36-26.36-11.8-26.36-26.36-26.36ZM109.36,61.7c-8.47,0-15.34-6.87-15.34-15.34s6.87-15.34,15.34-15.34,15.34,6.87,15.34,15.34-6.87,15.34-15.34,15.34Z"/>
      <path class="cls-1" d="M165.87,19.8c-14.56,0-26.36,11.8-26.36,26.36s11.8,26.36,26.36,26.36,26.36-11.8,26.36-26.36-11.8-26.36-26.36-26.36ZM165.87,61.7c-8.47,0-15.34-6.87-15.34-15.34s6.87-15.34,15.34-15.34,15.34,6.87,15.34,15.34-6.87,15.34-15.34,15.34Z"/>
      <rect class="cls-1" x="11.02" y="77.49" width="30.69" height="10.34"/>
      <rect class="cls-1" x="41.7" y="67.36" width="10.13" height="10.13"/>
      <rect class="cls-1" x="41.7" y="14.73" width="10.13" height="10.13"/>
      <polygon class="cls-1" points="194.26 19.8 202.21 72.52 222.51 72.52 228.79 31.01 231.09 31.01 236.53 72.52 258.3 72.52 265.83 19.8 254.74 19.8 248.88 61.7 246.58 61.7 240.72 19.8 219.97 19.8 213.72 61.7 211 61.7 205.35 19.8 194.26 19.8"/>
      <polygon class="cls-1" points="285.57 72.52 285.57 31.77 269.94 31.77 269.94 19.8 285.57 19.8 285.57 15.45 290.78 9.9 295.64 9.9 295.64 5.03 301.19 0 311.96 0 311.96 10.94 297.72 10.94 296.68 12.5 296.68 19.8 311.96 19.8 311.96 31.01 297.03 31.01 297.03 72.52 285.57 72.52"/>
      <rect class="cls-1" x="315.95" y="19.8" width="11.63" height="52.72"/>
      <rect class="cls-1" x="315.95" width="11.63" height="11.63"/>
      <polygon class="cls-1" points="56.66 71.73 56.66 35.49 61.67 31.01 66.69 31.01 66.69 24.86 71.65 19.9 83 19.9 83 31.01 67.98 31.01 67.98 71.73 56.66 71.73"/>
    </g>
  </g>
</svg>